<svg xmlns="http://www.w3.org/2000/svg" version="1.1" xmlns:xlink="http://www.w3.org/1999/xlink" xmlns:svgjs="http://svgjs.dev/svgjs" viewBox="0 0 1422 800"><g shape-rendering="crispEdges" stroke-linejoin="round" fill="none" stroke-width="1.5" stroke="hsl(85, 45%, 73%)"><polygon points="1066.5,0 1422,0 1422,200"></polygon><polygon points="1066.5,0 1066.5,200 711,200"></polygon><polygon points="1066.5,300 1066.5,200 888.75,200"></polygon><polygon points="711,200 711,300 888.75,200"></polygon><polygon points="711,400 888.75,400 888.75,300"></polygon><polygon points="888.75,300 1066.5,400 1066.5,300"></polygon><polygon points="1422,300 1422,200 1244.25,300"></polygon><polygon points="1244.25,300 1244.25,200 1066.5,300"></polygon><polygon points="1066.5,400 1244.25,300 1244.25,400"></polygon><polygon points="1422,400 1422,300 1244.25,400"></polygon><polygon points="711,0 711,100 533.25,100"></polygon><polygon points="355.5,100 355.5,0 533.25,100"></polygon><polygon points="355.5,200 355.5,100 533.25,200"></polygon><polygon points="711,200 533.25,200 533.25,100"></polygon><polygon points="355.5,200 0,0 0,200"></polygon><polygon points="177.75,200 355.5,300 177.75,300"></polygon><polygon points="0,300 177.75,200 0,200"></polygon><polygon points="177.75,300 177.75,400 0,400"></polygon><polygon points="177.75,300 177.75,400 355.5,400"></polygon><polygon points="711,200 711,300 533.25,300"></polygon><polygon points="355.5,200 533.25,300 533.25,200"></polygon><polygon points="533.25,400 533.25,300 355.5,300"></polygon><polygon points="711,300 533.25,400 533.25,300"></polygon><polygon points="711,500 533.25,400 711,400"></polygon><polygon points="355.5,500 533.25,400 533.25,500"></polygon><polygon points="355.5,600 533.25,500 355.5,500"></polygon><polygon points="711,500 711,600 533.25,500"></polygon><polygon points="177.75,400 355.5,500 355.5,400"></polygon><polygon points="0,400 0,500 177.75,500"></polygon><polygon points="177.75,500 0,600 0,500"></polygon><polygon points="355.5,600 355.5,500 177.75,600"></polygon><polygon points="355.5,600 355.5,800 0,800"></polygon><polygon points="711,700 711,600 533.25,700"></polygon><polygon points="533.25,700 533.25,600 355.5,600"></polygon><polygon points="533.25,800 533.25,700 355.5,800"></polygon><polygon points="711,700 711,800 533.25,700"></polygon><polygon points="1422,400 1422,600 1066.5,600"></polygon><polygon points="888.75,400 1066.5,500 888.75,500"></polygon><polygon points="888.75,400 888.75,500 711,500"></polygon><polygon points="711,500 888.75,600 888.75,500"></polygon><polygon points="1066.5,600 888.75,600 888.75,500"></polygon><polygon points="1066.5,800 711,800 1066.5,600"></polygon><polygon points="1066.5,600 1422,600 1422,800"></polygon></g><g fill="hsl(220, 62%, 45%)" stroke-width="3" stroke="hsl(220, 43%, 13%)"></g></svg>